<svg width="120" height="120" viewBox="0 0 120 120" fill="none" xmlns="http://www.w3.org/2000/svg">
<g filter="url(#filter0_d_58_1208)">
<rect x="10" y="8" width="100" height="100" rx="16" fill="white"/>
<path d="M46.1818 70.003H51.2727V57.6394L47.9391 51.8182L44 52.1848V67.8212C44 69.0266 44.9764 70.003 46.1818 70.003Z" fill="#0085F7"/>
<path d="M68.7273 70.003H73.8182C75.0237 70.003 76 69.0266 76 67.8212V52.1848L72.0666 51.8182L68.7274 57.6394V70.003H68.7273Z" fill="#00A94B"/>
<path d="M68.7273 48.1847L65.7368 53.8912L68.7273 57.6393L76 52.1847V49.2757C76 46.5793 72.9218 45.0393 70.7636 46.6575L68.7273 48.1847Z" fill="#FFBC00"/>
<path fill-rule="evenodd" clip-rule="evenodd" d="M51.2728 57.6393L48.4232 51.6199L51.2728 48.1847L60 54.7301L68.7273 48.1847V57.6393L60 64.1847L51.2728 57.6393Z" fill="#FF4131"/>
<path d="M44 49.2757V52.1847L51.2727 57.6393V48.1847L49.2364 46.6575C47.0782 45.0393 44 46.5793 44 49.2757Z" fill="#E51C19"/>
</g>
<defs>
<filter id="filter0_d_58_1208" x="0" y="0" width="120" height="120" filterUnits="userSpaceOnUse" color-interpolation-filters="sRGB">
<feFlood flood-opacity="0" result="BackgroundImageFix"/>
<feColorMatrix in="SourceAlpha" type="matrix" values="0 0 0 0 0 0 0 0 0 0 0 0 0 0 0 0 0 0 127 0" result="hardAlpha"/>
<feOffset dy="2"/>
<feGaussianBlur stdDeviation="5"/>
<feComposite in2="hardAlpha" operator="out"/>
<feColorMatrix type="matrix" values="0 0 0 0 0.486275 0 0 0 0 0.552941 0 0 0 0 0.709804 0 0 0 0.12 0"/>
<feBlend mode="normal" in2="BackgroundImageFix" result="effect1_dropShadow_58_1208"/>
<feBlend mode="normal" in="SourceGraphic" in2="effect1_dropShadow_58_1208" result="shape"/>
</filter>
</defs>
</svg>
