<svg width="24" height="24" viewBox="0 0 24 24" fill="none" xmlns="http://www.w3.org/2000/svg">
<path d="M16.96 6.17C18.96 7.56 20.34 9.77 20.62 12.32" stroke="#636363" stroke-width="1.5" stroke-linecap="round" stroke-linejoin="round"/>
<path d="M3.49023 12.37C3.75023 9.83 5.11023 7.62 7.09023 6.22" stroke="#636363" stroke-width="1.5" stroke-linecap="round" stroke-linejoin="round"/>
<path d="M8.19043 20.94C9.35043 21.53 10.6704 21.86 12.0604 21.86C13.4004 21.86 14.6604 21.56 15.7904 21.01" stroke="#636363" stroke-width="1.5" stroke-linecap="round" stroke-linejoin="round"/>
<path d="M12.0603 7.7C13.5956 7.7 14.8403 6.45535 14.8403 4.92C14.8403 3.38465 13.5956 2.14 12.0603 2.14C10.5249 2.14 9.28027 3.38465 9.28027 4.92C9.28027 6.45535 10.5249 7.7 12.0603 7.7Z" stroke="#636363" stroke-width="1.5" stroke-linecap="round" stroke-linejoin="round"/>
<path d="M4.8298 19.92C6.36516 19.92 7.60981 18.6754 7.60981 17.14C7.60981 15.6046 6.36516 14.36 4.8298 14.36C3.29445 14.36 2.0498 15.6046 2.0498 17.14C2.0498 18.6754 3.29445 19.92 4.8298 19.92Z" stroke="#636363" stroke-width="1.5" stroke-linecap="round" stroke-linejoin="round"/>
<path d="M19.1696 19.92C20.705 19.92 21.9496 18.6754 21.9496 17.14C21.9496 15.6046 20.705 14.36 19.1696 14.36C17.6343 14.36 16.3896 15.6046 16.3896 17.14C16.3896 18.6754 17.6343 19.92 19.1696 19.92Z" stroke="#636363" stroke-width="1.5" stroke-linecap="round" stroke-linejoin="round"/>
</svg>
