<svg width="39" height="38" viewBox="0 0 41 40" fill="none" xmlns="http://www.w3.org/2000/svg">
<path d="M40 6C40 4.4 39.38 2.88 38.24 1.76C37.1 0.62 35.6 0 34 0H6C4.4 0 2.88 0.62 1.76 1.76C0.62 2.9 0 4.4 0 6V26.02C0 27.62 0.64 29.14 1.78 30.26C2.92 31.4 4.42 32.02 6.02 32.02H8V38C8.00211 38.5298 8.2135 39.0373 8.58811 39.4119C8.96273 39.7865 9.47022 39.9979 10 40C10.44 40 10.88 39.86 11.24 39.56L20.7 32.02H34.02C35.62 32.02 37.12 31.4 38.26 30.26C39.4 29.12 40.02 27.62 40.02 26.02V6H40ZM35.44 27.44C35.2538 27.6263 35.0323 27.7735 34.7884 27.8731C34.5446 27.9727 34.2834 28.0226 34.02 28.02H20C19.54 28.02 19.1 28.18 18.76 28.46L12 33.84V30.02C12 28.92 11.1 28.02 10 28.02H6.02C5.75661 28.0227 5.49534 27.9728 5.25148 27.8732C5.00762 27.7736 4.78608 27.6264 4.59983 27.4402C4.41357 27.2539 4.26636 27.0324 4.16679 26.7885C4.06723 26.5447 4.01733 26.2834 4.02 26.02V6C4.02 5.48 4.22 4.96 4.58 4.58C4.76622 4.39374 4.98773 4.2465 5.23155 4.14691C5.47538 4.04732 5.73663 3.99737 6 4H34C34.2634 3.99733 34.5247 4.04723 34.7685 4.14679C35.0124 4.24636 35.2339 4.39357 35.4202 4.57983C35.6064 4.76608 35.7536 4.98762 35.8532 5.23148C35.9528 5.47534 36.0027 5.73661 36 6V26.02C36 26.54 35.8 27.06 35.44 27.44Z" fill="#0F0F0F"/>
<path d="M13.46 11.46C12.52 12.4 12 13.66 12 15V20.66C12 21.76 12.9 22.66 14 22.66C15.1 22.66 16 21.76 16 20.66V20.06H18V20.66C18 21.76 18.9 22.66 20 22.66C21.1 22.66 22 21.76 22 20.66V15C22 13.66 21.48 12.4 20.54 11.46C18.68 9.58 15.34 9.58 13.46 11.46ZM16 16.06V15C16 14.74 16.1 14.48 16.3 14.3C16.66 13.94 17.32 13.92 17.72 14.3C17.9011 14.4879 18.0016 14.7391 18 15V16.06H16ZM26 10C24.9 10 24 10.9 24 12V20.66C24 21.76 24.9 22.66 26 22.66C27.1 22.66 28 21.76 28 20.66V12C28 10.9 27.1 10 26 10Z" fill="#0F0F0F"/>
</svg>
